<?xml version="1.0" standalone="no"?>
<!DOCTYPE svg PUBLIC "-//W3C//DTD SVG 20010904//EN"
 "http://www.w3.org/TR/2001/REC-SVG-20010904/DTD/svg10.dtd">
<svg version="1.0" xmlns="http://www.w3.org/2000/svg"
 width="500.000000pt" height="500.000000pt" viewBox="0 0 500.000000 500.000000"
 preserveAspectRatio="xMidYMid meet">
<metadata>
Created by potrace 1.11, written by Peter Selinger 2001-2013
</metadata>
<g transform="translate(0.000000,500.000000) scale(0.100000,-0.100000)"
fill="#000000" stroke="none">
<path d="M2246 4249 c-39 -11 -81 -53 -107 -108 -30 -63 -30 -179 2 -245 21
-46 82 -106 106 -106 9 0 13 -18 13 -58 0 -50 -3 -59 -22 -67 -23 -10 -23 -11
-26 -283 l-2 -273 24 -24 c51 -51 135 -22 137 48 0 41 0 475 0 504 -1 15 -9
25 -25 29 -21 5 -23 11 -23 60 0 53 1 56 36 73 130 67 152 304 38 413 -22 21
-47 38 -56 39 -9 0 -27 2 -41 3 -14 2 -38 0 -54 -5z m111 -81 c79 -74 63 -267
-25 -312 -77 -39 -155 43 -155 164 0 81 38 153 93 173 23 9 63 -2 87 -25z
m-47 -804 c0 -227 -1 -245 -17 -242 -16 3 -18 23 -18 238 -1 237 0 240 33 249
1 1 2 -110 2 -245z"/>
<path d="M2580 4240 c-16 -29 -12 -305 5 -353 17 -50 51 -85 89 -95 29 -8 31
-11 34 -63 3 -48 0 -55 -20 -64 l-23 -10 -3 -271 c-2 -262 -2 -272 19 -297 28
-36 86 -38 118 -3 23 24 23 28 24 283 0 142 -3 268 -7 281 -4 12 -15 22 -25
22 -13 0 -17 10 -19 54 -2 54 -1 55 34 66 39 13 71 42 86 80 14 34 16 358 3
377 -13 18 -45 7 -46 -16 0 -9 -1 -86 -2 -171 -2 -132 -5 -159 -21 -182 -10
-16 -23 -29 -30 -29 -96 -10 -129 0 -147 43 -9 21 -13 85 -14 190 0 129 -3
161 -15 168 -22 14 -28 12 -40 -10z m180 -882 c0 -223 -1 -239 -17 -236 -17 3
-18 23 -19 238 -1 129 1 238 3 242 2 4 10 5 18 1 13 -4 15 -43 15 -245z"/>
<path d="M2682 4252 c-8 -6 -13 -36 -13 -93 -1 -117 -1 -116 17 -123 34 -13
44 12 44 108 0 103 -12 130 -48 108z"/>
<path d="M2761 4247 c-18 -18 -14 -182 4 -201 14 -14 43 -12 46 3 5 25 3 184
-2 193 -10 16 -35 18 -48 5z"/>
<path d="M140 3634 l0 -24 835 0 835 0 0 24 0 25 -835 0 -835 0 0 -25z"/>
<path d="M3190 3634 l0 -24 835 0 835 0 0 25 0 24 -835 0 -835 -1 0 -24z"/>
<path d="M140 3550 c0 -11 6 -20 13 -21 16 -1 1639 -1 1650 0 4 1 7 10 7 21 0
20 -7 20 -835 20 -828 0 -835 0 -835 -20z"/>
<path d="M3190 3550 c0 -12 7 -20 18 -21 23 -1 1601 -1 1630 0 15 1 22 7 22
21 0 20 -7 20 -835 20 -828 0 -835 0 -835 -20z"/>
<path d="M1766 2579 c-10 -15 -11 -32 -4 -72 12 -71 15 -78 32 -71 15 6 42
126 32 142 -12 20 -46 20 -60 1z"/>
<path d="M2044 2589 c-61 -17 -100 -91 -73 -141 15 -28 30 -40 88 -70 49 -25
59 -41 41 -63 -17 -21 -59 -19 -97 5 l-32 19 -20 -32 c-24 -38 -16 -51 45 -72
110 -38 219 25 200 116 -7 37 -33 62 -98 95 -55 28 -64 40 -47 60 13 16 50 15
91 -1 22 -9 54 48 35 63 -27 22 -92 32 -133 21z"/>
<path d="M3560 2590 c-120 -21 -190 -145 -142 -252 43 -98 157 -139 265 -97
32 13 31 12 12 50 -13 25 -20 28 -42 23 -69 -18 -117 -4 -144 40 -23 37 -24
67 -4 105 23 46 104 68 153 42 17 -9 22 -6 36 23 21 44 22 43 -19 56 -46 15
-72 17 -115 10z"/>
<path d="M178 2584 c-3 -5 -5 -87 -5 -183 l-1 -173 88 4 c77 4 92 7 124 32 50
38 70 80 70 148 -1 70 -34 126 -91 154 -40 19 -177 32 -185 18z m157 -94 c46
-38 42 -127 -6 -163 -27 -20 -39 -23 -67 -18 -6 1 -9 168 -3 203 1 9 59 -8 76
-22z"/>
<path d="M656 2558 c-8 -18 -41 -99 -74 -180 l-61 -148 44 0 c42 0 46 2 59 35
15 35 15 35 81 35 66 0 66 0 81 -35 13 -33 17 -35 58 -35 l45 0 -73 178 -72
177 -37 3 c-34 3 -39 0 -51 -30z m84 -174 c0 -6 -16 -11 -35 -11 -19 0 -35 3
-35 6 0 3 8 25 17 50 l17 45 18 -40 c10 -21 18 -44 18 -50z"/>
<path d="M969 2583 c-1 -4 -2 -86 -3 -182 l-1 -173 86 4 c76 4 92 8 123 32 58
43 71 71 71 146 0 57 -4 72 -27 102 -39 51 -93 75 -177 77 -39 1 -71 -2 -72
-6z m165 -104 c31 -36 34 -87 9 -130 -17 -28 -29 -36 -72 -44 -18 -3 -20 2
-23 91 -2 52 -1 99 0 104 8 23 60 10 86 -21z"/>
<path d="M1444 2553 c-9 -21 -43 -102 -75 -181 l-58 -143 47 3 c43 3 47 6 56
36 l9 32 72 0 72 0 9 -32 c9 -31 13 -33 57 -36 l46 -3 -72 178 -73 178 -37 3
c-35 3 -39 1 -53 -35z m86 -169 c0 -6 -16 -11 -35 -11 -38 0 -39 3 -12 71 l11
30 18 -40 c10 -21 18 -44 18 -50z"/>
<path d="M2489 2580 c-1 -5 -2 -86 -3 -180 l-1 -170 43 0 43 0 -2 65 c-1 36 0
68 3 71 3 3 28 -21 54 -53 27 -32 54 -64 61 -70 7 -8 36 -13 68 -13 l57 0 -63
72 c-35 40 -72 82 -81 92 -10 11 -18 22 -18 25 0 3 32 42 70 86 l69 80 -47 3
c-51 4 -45 8 -134 -97 l-38 -45 0 72 0 72 -40 0 c-22 0 -41 -4 -41 -10z"/>
<path d="M2893 2410 l0 -180 41 0 41 0 -1 173 c-1 94 -2 175 -3 180 0 4 -18 7
-39 7 l-39 0 0 -180z"/>
<path d="M3072 2553 c3 -37 4 -38 43 -37 l40 2 -1 -144 -1 -144 41 0 42 0 -1
133 c-1 72 0 137 3 144 2 6 20 10 43 9 l39 -3 0 39 0 38 -126 0 -125 0 3 -37z"/>
<path d="M3808 2583 c-2 -5 -4 -84 -4 -178 l1 -170 43 -3 42 -3 0 70 c0 67 1
71 23 72 12 0 35 2 50 3 16 1 31 -2 33 -6 3 -4 6 -37 6 -73 l1 -66 41 3 41 3
0 175 0 175 -40 0 -40 0 -2 -64 c-1 -35 -5 -66 -8 -69 -3 -3 -28 -6 -55 -6
l-50 -1 0 72 0 73 -39 0 c-22 0 -41 -3 -43 -7z"/>
<path d="M4200 2410 l0 -180 104 0 105 0 -2 33 c-2 32 -2 32 -62 37 -59 5 -60
5 -62 38 -3 30 -1 32 30 33 17 1 44 0 60 -1 25 -1 27 1 27 38 l0 40 -55 -2
c-57 -2 -63 3 -61 44 1 23 5 25 51 26 28 1 55 2 62 3 6 0 11 15 10 34 l-2 32
-102 3 -103 3 0 -181z"/>
<path d="M4519 2588 c0 -5 -1 -269 0 -315 l1 -43 40 0 39 0 3 108 3 107 69
-107 68 -108 42 0 41 0 0 178 0 177 -40 0 -40 0 -2 -99 c-2 -55 -4 -101 -7
-103 -2 -2 -32 43 -68 99 -64 102 -65 103 -106 106 -23 2 -42 2 -43 0z"/>
<path d="M1443 1682 c-6 -4 -13 -20 -16 -37 -3 -16 -12 -63 -20 -102 -12 -62
-13 -73 -1 -73 8 0 14 9 14 20 0 16 7 20 30 20 23 0 30 -4 30 -20 0 -11 7 -20
15 -20 18 0 19 -11 -5 106 -20 101 -27 118 -47 106z m21 -93 c7 -45 2 -59 -21
-59 -12 0 -14 7 -9 38 3 20 6 43 6 50 0 29 18 8 24 -29z"/>
<path d="M1592 1682 c-19 -6 -17 -212 2 -212 11 0 14 12 12 45 -2 45 3 51 42
46 6 -1 12 3 12 9 0 9 -21 15 -42 11 -5 0 -8 6 -9 14 -4 58 -4 60 26 65 17 3
30 9 30 14 0 10 -52 15 -73 8z"/>
<path d="M1739 1671 c-5 -84 0 -196 10 -199 12 -4 14 6 11 56 -1 30 1 33 22
30 19 -2 23 -10 26 -45 2 -26 8 -43 16 -43 16 0 13 74 -3 94 -8 10 -9 16 -1
21 13 8 13 82 0 90 -5 3 -25 7 -45 9 -26 2 -35 -2 -36 -13z m69 -42 c3 -27
-20 -55 -38 -44 -5 3 -10 22 -10 41 0 31 3 35 23 32 15 -2 23 -11 25 -29z"/>
<path d="M2033 1680 c-17 -7 -23 -18 -24 -42 -5 -143 3 -168 52 -168 24 0 30
6 37 33 9 33 7 47 -8 47 -5 0 -10 -12 -12 -27 -2 -20 -9 -28 -23 -28 -18 0
-20 8 -23 73 -3 80 9 112 34 91 8 -6 14 -20 14 -31 0 -11 5 -18 13 -15 16 5
10 49 -11 65 -18 14 -19 14 -49 2z"/>
<path d="M2215 1681 c-5 -9 -30 -123 -38 -178 -6 -36 11 -46 20 -13 4 14 14
20 34 20 22 0 29 -5 29 -20 0 -12 7 -20 16 -20 10 0 14 6 11 14 -3 8 -11 43
-18 78 -6 35 -13 70 -14 78 -2 8 -4 20 -4 26 -1 15 -29 26 -36 15z m30 -138
c-2 -7 -12 -13 -21 -13 -13 0 -15 8 -10 43 3 23 6 49 6 57 1 8 8 -5 16 -30 8
-25 12 -51 9 -57z"/>
<path d="M2365 1682 c-6 -4 -9 -47 -8 -97 2 -117 1 -115 13 -115 6 0 10 33 11
78 l1 77 25 -77 c38 -113 53 -105 52 27 0 58 -4 107 -9 110 -12 8 -17 -15 -14
-79 3 -67 -7 -60 -31 21 -16 54 -25 66 -40 55z"/>
<path d="M2652 1674 c-20 -14 -22 -24 -22 -98 0 -90 8 -106 52 -106 31 0 56
36 44 65 -8 23 -26 9 -26 -21 0 -17 -5 -24 -20 -24 -12 0 -20 7 -21 18 -4 55
-4 129 -1 140 7 21 40 14 44 -10 2 -12 9 -23 16 -26 19 -6 7 50 -15 65 -21 16
-24 16 -51 -3z"/>
<path d="M2800 1601 c0 -51 5 -101 10 -112 12 -22 64 -26 77 -6 4 6 8 54 10
105 2 70 -1 92 -10 92 -10 0 -13 -20 -12 -77 1 -82 -7 -113 -29 -113 -20 0
-23 16 -21 103 1 54 -2 80 -12 88 -11 10 -13 -5 -13 -80z"/>
<path d="M2977 1683 c-4 -3 -7 -53 -7 -110 0 -80 3 -103 14 -103 10 0 13 22
12 105 -2 101 -5 122 -19 108z"/>
<path d="M3100 1683 c-42 -16 -39 -64 5 -110 39 -40 44 -78 10 -78 -12 0 -21
9 -26 25 -6 23 -7 23 -14 6 -12 -27 7 -51 44 -54 26 -3 33 1 41 22 12 33 -1
67 -34 92 -34 25 -39 68 -8 72 17 3 22 -2 22 -17 0 -14 5 -19 14 -15 17 7 10
33 -12 52 -17 13 -19 13 -42 5z"/>
<path d="M3244 1678 c-14 -21 -11 -201 4 -206 9 -3 12 24 12 107 0 61 -2 111
-4 111 -2 0 -7 -6 -12 -12z"/>
<path d="M3337 1682 c-2 -6 -1 -158 2 -199 1 -7 6 -13 11 -13 6 0 10 33 11 78
l1 77 25 -77 c35 -111 50 -103 52 27 0 58 -4 107 -9 110 -11 7 -13 -12 -12
-92 0 -29 -1 -53 -2 -53 -2 0 -13 31 -25 69 -19 61 -44 94 -54 73z"/>
<path d="M3528 1682 c-16 -3 -18 -16 -18 -108 l0 -104 45 0 c25 0 45 5 45 10
0 6 -13 10 -29 10 -24 0 -29 5 -33 28 -6 41 0 52 28 52 33 0 31 18 -3 22 -22
2 -27 8 -28 36 -1 30 1 32 32 32 18 0 33 5 33 10 0 6 -3 10 -7 11 -39 4 -50 4
-65 1z"/>
<path d="M1910 1576 c0 -58 4 -106 9 -106 14 0 17 20 16 114 0 62 -4 91 -13
94 -9 3 -12 -22 -12 -102z"/>
</g>
</svg>
